<svg width="19" height="19" viewBox="0 0 19 19" fill="none" xmlns="http://www.w3.org/2000/svg">
<path d="M7.22119 11.6249H11.7185" stroke="#727272" stroke-width="1.34919" stroke-linecap="round" stroke-linejoin="round"/>
<path d="M7.22119 9.37622H11.7185" stroke="#727272" stroke-width="1.34919" stroke-linecap="round" stroke-linejoin="round"/>
<path d="M11.7188 3.75458H14.5295C14.6786 3.75458 14.8216 3.81381 14.927 3.91923C15.0324 4.02466 15.0916 4.16765 15.0916 4.31674V16.1221C15.0916 16.2712 15.0324 16.4142 14.927 16.5197C14.8216 16.6251 14.6786 16.6843 14.5295 16.6843H4.41055C4.26146 16.6843 4.11847 16.6251 4.01304 16.5197C3.90762 16.4142 3.84839 16.2712 3.84839 16.1221V4.31674C3.84839 4.16765 3.90762 4.02466 4.01304 3.91923C4.11847 3.81381 4.26146 3.75458 4.41055 3.75458H7.22121" stroke="#727272" stroke-width="1.34919" stroke-linecap="round" stroke-linejoin="round"/>
<path d="M6.65918 6.00322V5.44106C6.65918 4.69559 6.95532 3.98065 7.48245 3.45352C8.00958 2.92639 8.72452 2.63025 9.46999 2.63025C10.2155 2.63025 10.9304 2.92639 11.4575 3.45352C11.9847 3.98065 12.2808 4.69559 12.2808 5.44106V6.00322H6.65918Z" stroke="#727272" stroke-width="1.34919" stroke-linecap="round" stroke-linejoin="round"/>
</svg>
