<svg width="17" height="17" viewBox="0 0 17 17" fill="none" xmlns="http://www.w3.org/2000/svg">
<path d="M12.6754 13.758L8.05353 9.24704C7.97958 9.17802 7.92782 9.10654 7.89824 9.03259C7.86866 8.95864 7.85387 8.8699 7.85387 8.76637V2.14046H9.03707V7.85678L13.8882 5.07627L14.4872 6.10417L9.51774 8.94385L13.5702 12.9297L12.6754 13.758ZM8.43807 16.2501C7.39291 16.2501 6.40938 16.0504 5.48747 15.6511C4.56556 15.2567 3.75211 14.707 3.04712 14.002C2.34706 13.297 1.79737 12.4836 1.39804 11.5617C0.99871 10.6398 0.799045 9.65623 0.799045 8.61107C0.799045 7.56591 0.99871 6.58238 1.39804 5.66047C1.79737 4.73856 2.34706 3.92758 3.04712 3.22752C3.75211 2.52253 4.5631 1.97037 5.48007 1.57104C6.40198 1.17171 7.38552 0.972047 8.43068 0.972047C9.48077 0.972047 10.4668 1.17171 11.3887 1.57104C12.3106 1.97037 13.124 2.52253 13.829 3.22752C14.534 3.92758 15.0862 4.73856 15.4855 5.66047C15.8848 6.58238 16.0845 7.56591 16.0845 8.61107C16.0845 9.65623 15.8848 10.6398 15.4855 11.5617C15.0862 12.4836 14.534 13.297 13.829 14.002C13.124 14.707 12.3106 15.2567 11.3887 15.6511C10.4668 16.0504 9.48323 16.2501 8.43807 16.2501ZM8.43807 14.7415C9.29096 14.7415 10.0872 14.5838 10.8267 14.2682C11.5662 13.9527 12.2169 13.514 12.7789 12.9519C13.341 12.3899 13.7797 11.7392 14.0952 10.9997C14.4108 10.2602 14.5685 9.46396 14.5685 8.61107C14.5685 7.76311 14.4108 6.96938 14.0952 6.22989C13.7797 5.48546 13.341 4.83223 12.7789 4.27021C12.2169 3.70819 11.5637 3.26942 10.8193 2.9539C10.0798 2.63838 9.28357 2.48062 8.43068 2.48062C7.58272 2.48062 6.78652 2.63838 6.04209 2.9539C5.30259 3.26942 4.6543 3.70819 4.09721 4.27021C3.54012 4.83223 3.10382 5.48546 2.7883 6.22989C2.47278 6.96938 2.31502 7.76311 2.31502 8.61107C2.31502 9.46396 2.47278 10.2602 2.7883 10.9997C3.10382 11.7392 3.54012 12.3899 4.09721 12.9519C4.65923 13.514 5.30999 13.9527 6.04949 14.2682C6.79392 14.5838 7.59011 14.7415 8.43807 14.7415Z" fill="white"/>
</svg>
