<svg width="15" height="15" viewBox="0 0 15 15" fill="none" xmlns="http://www.w3.org/2000/svg">
<path d="M6.7 14.2063C6.43356 14.2063 6.20196 14.1284 6.00521 13.9726C5.80845 13.8209 5.68138 13.618 5.62399 13.3639L5.37804 12.3186L5.24277 12.2756L4.33892 12.829C4.10937 12.9724 3.86958 13.0257 3.61953 12.9888C3.37359 12.956 3.15838 12.8454 2.97392 12.6568L2.10696 11.796C1.91431 11.6033 1.80158 11.384 1.76879 11.1381C1.74009 10.888 1.79748 10.6523 1.94095 10.431L2.50048 9.53328L2.45129 9.40416L1.41831 9.15822C1.16417 9.09673 0.959216 8.96761 0.80345 8.77085C0.651783 8.57409 0.57595 8.34249 0.57595 8.07605V6.87092C0.57595 6.60448 0.651783 6.37288 0.80345 6.17612C0.955117 5.97936 1.16007 5.85024 1.41831 5.78876L2.44514 5.53666L2.49433 5.40139L1.9348 4.50369C1.79543 4.28234 1.74009 4.04869 1.76879 3.80274C1.80158 3.5568 1.91431 3.33544 2.10696 3.13869L2.96777 2.27173C3.15633 2.08727 3.37359 1.97864 3.61953 1.94585C3.86548 1.90896 4.10118 1.9602 4.32663 2.09957L5.23048 2.65909L5.37804 2.60376L5.62399 1.55849C5.68138 1.30844 5.80845 1.10553 6.00521 0.949769C6.20196 0.794003 6.43356 0.71612 6.7 0.71612H7.95433C8.22077 0.71612 8.45237 0.794003 8.64913 0.949769C8.84588 1.10144 8.97295 1.30434 9.03034 1.55849L9.27014 2.60376L9.41771 2.65909L10.3277 2.09957C10.5491 1.9602 10.7827 1.90896 11.0287 1.94585C11.2787 1.97864 11.496 2.08727 11.6804 2.27173L12.5474 3.13869C12.74 3.33544 12.8507 3.5568 12.8794 3.80274C12.9122 4.04869 12.8589 4.28234 12.7195 4.50369L12.1539 5.40139L12.2092 5.53666L13.236 5.78876C13.4902 5.85024 13.6931 5.97936 13.8447 6.17612C14.0005 6.37288 14.0784 6.60448 14.0784 6.87092V8.07605C14.0784 8.34249 14.0005 8.57409 13.8447 8.77085C13.6931 8.96761 13.4902 9.09673 13.236 9.15822L12.203 9.40416L12.1477 9.53328L12.7134 10.431C12.8528 10.6523 12.906 10.888 12.8732 11.1381C12.8446 11.384 12.7359 11.6033 12.5474 11.796L11.6804 12.6568C11.4919 12.8454 11.2725 12.956 11.0225 12.9888C10.7766 13.0257 10.5429 12.9724 10.3216 12.829L9.41156 12.2756L9.27014 12.3186L9.03034 13.3639C8.97295 13.618 8.84588 13.8209 8.64913 13.9726C8.45237 14.1284 8.22077 14.2063 7.95433 14.2063H6.7ZM6.89676 12.9765H7.75757C7.85595 12.9765 7.91129 12.9294 7.92359 12.8351L8.2925 11.3287C8.50156 11.2836 8.69832 11.2221 8.88277 11.1442C9.06723 11.0663 9.24145 10.9762 9.40541 10.8737L10.7212 11.6792C10.7991 11.7324 10.8729 11.7243 10.9426 11.6546L11.5451 11.052C11.6107 10.9905 11.6169 10.9188 11.5636 10.8368L10.752 9.52099C10.8462 9.36522 10.9323 9.19306 11.0102 9.0045C11.0881 8.81184 11.1516 8.61713 11.2008 8.42038L12.7134 8.06376C12.8036 8.04736 12.8487 7.98997 12.8487 7.89159V7.04923C12.8487 6.95495 12.8036 6.89961 12.7134 6.88322L11.2008 6.5143C11.1557 6.30934 11.0922 6.11258 11.0102 5.92403C10.9282 5.73137 10.8442 5.56126 10.7581 5.41369L11.5697 4.09788C11.623 4.0159 11.6169 3.94211 11.5513 3.87653L10.9487 3.28011C10.879 3.21862 10.8032 3.21042 10.7212 3.25551L9.40541 4.05484C9.24554 3.96056 9.07133 3.87243 8.88277 3.79044C8.69832 3.70846 8.50156 3.64493 8.2925 3.59984L7.92359 2.08727C7.91129 1.99299 7.85595 1.94585 7.75757 1.94585H6.89676C6.79838 1.94585 6.741 1.99299 6.7246 2.08727L6.36798 3.58754C6.16302 3.63673 5.95807 3.70436 5.75311 3.79044C5.55226 3.87243 5.38009 3.95851 5.23663 4.04869L3.92696 3.24936C3.84498 3.20427 3.76915 3.21452 3.69946 3.28011L3.09075 3.87038C3.02926 3.93596 3.02516 4.0118 3.07845 4.09788L3.89007 5.41369C3.80399 5.56126 3.71996 5.73137 3.63798 5.92403C3.556 6.11258 3.49246 6.31139 3.44737 6.52044L1.94095 6.88322C1.85077 6.89961 1.80568 6.95495 1.80568 7.04923V7.89159C1.80568 7.98997 1.85077 8.04736 1.94095 8.06376L3.45352 8.42038C3.49861 8.62123 3.56009 8.81594 3.63798 9.0045C3.71586 9.18896 3.80194 9.36112 3.89622 9.52099L3.07845 10.8368C3.03336 10.9229 3.04156 10.9967 3.10304 11.0581L3.70561 11.6607C3.7794 11.7304 3.85318 11.7386 3.92696 11.6853L5.24892 10.8737C5.40879 10.9762 5.583 11.0684 5.77156 11.1504C5.96422 11.2283 6.16097 11.2877 6.36183 11.3287L6.7246 12.8351C6.741 12.9294 6.79838 12.9765 6.89676 12.9765ZM7.32717 9.79153C6.90086 9.79153 6.51145 9.687 6.15892 9.47795C5.8064 9.26479 5.52356 8.98195 5.31041 8.62943C5.10136 8.27691 4.99683 7.88749 4.99683 7.46119C4.99683 7.03898 5.10136 6.65162 5.31041 6.29909C5.52356 5.94657 5.8064 5.66578 6.15892 5.45673C6.51145 5.24767 6.90086 5.14315 7.32717 5.14315C7.75347 5.14315 8.14289 5.24767 8.49541 5.45673C8.84793 5.66578 9.12872 5.94657 9.33777 6.29909C9.54683 6.65162 9.65136 7.03898 9.65136 7.46119C9.65136 7.88749 9.54683 8.27691 9.33777 8.62943C9.12872 8.98195 8.84793 9.26479 8.49541 9.47795C8.14289 9.687 7.75347 9.79153 7.32717 9.79153ZM7.32717 8.66017C7.54032 8.66017 7.73503 8.60689 7.91129 8.50031C8.09165 8.38963 8.23512 8.24412 8.34169 8.06376C8.45237 7.8793 8.50771 7.67844 8.50771 7.46119C8.50771 7.24394 8.45237 7.04718 8.34169 6.87092C8.23512 6.69056 8.09165 6.54709 7.91129 6.44051C7.73503 6.32984 7.54032 6.2745 7.32717 6.2745C7.10991 6.2745 6.91111 6.32779 6.73075 6.43436C6.55039 6.54094 6.40487 6.68441 6.29419 6.86477C6.18762 7.04513 6.13433 7.24394 6.13433 7.46119C6.13433 7.68254 6.18762 7.8834 6.29419 8.06376C6.40487 8.24412 6.55039 8.38963 6.73075 8.50031C6.91111 8.60689 7.10991 8.66017 7.32717 8.66017Z" fill="#727272"/>
</svg>
